<?xml version="1.0" encoding="utf-8"?>
<!-- Generator: Adobe Illustrator 25.2.1, SVG Export Plug-In . SVG Version: 6.00 Build 0)  -->
<svg version="1.1" id="Layer_1" xmlns="http://www.w3.org/2000/svg" xmlns:xlink="http://www.w3.org/1999/xlink" x="0px" y="0px"
	 viewBox="0 0 612 792" style="enable-background:new 0 0 612 792;" xml:space="preserve">
<style type="text/css">
	.st0{fill-rule:evenodd;clip-rule:evenodd;fill:#FFFFFF;}
	.st1{fill-rule:evenodd;clip-rule:evenodd;fill:#A8A2A0;}
	.st2{fill-rule:evenodd;clip-rule:evenodd;fill:#61161E;}
	.st3{fill-rule:evenodd;clip-rule:evenodd;fill:#2F244A;}
	.st4{fill-rule:evenodd;clip-rule:evenodd;fill:#BA282D;}
	.st5{fill-rule:evenodd;clip-rule:evenodd;fill:#E4783F;}
	.st6{fill-rule:evenodd;clip-rule:evenodd;fill:#E43C12;}
	.st7{fill-rule:evenodd;clip-rule:evenodd;fill:#1E1A33;}
	.st8{fill-rule:evenodd;clip-rule:evenodd;fill:#E04E3D;}
	.st9{fill-rule:evenodd;clip-rule:evenodd;fill:#E76652;}
	.st10{fill-rule:evenodd;clip-rule:evenodd;fill:#EB7D72;}
	.st11{fill-rule:evenodd;clip-rule:evenodd;fill:#408D95;}
	.st12{fill-rule:evenodd;clip-rule:evenodd;fill:#2E666B;}
	.st13{fill-rule:evenodd;clip-rule:evenodd;fill:#BE2E1F;}
	.st14{fill-rule:evenodd;clip-rule:evenodd;fill:#82C4CA;}
	.st15{fill-rule:evenodd;clip-rule:evenodd;fill:#555555;}
	.st16{fill-rule:evenodd;clip-rule:evenodd;fill:#2B2B2B;}
	.st17{fill-rule:evenodd;clip-rule:evenodd;fill:#444444;}
	.st18{fill-rule:evenodd;clip-rule:evenodd;fill:#E6AB28;}
	.st19{fill-rule:evenodd;clip-rule:evenodd;fill:#E9D21B;}
	.st20{fill-rule:evenodd;clip-rule:evenodd;fill:#EBBE58;}
	.st21{fill-rule:evenodd;clip-rule:evenodd;fill:#9D5915;}
	.st22{fill-rule:evenodd;clip-rule:evenodd;}
	.st23{fill-rule:evenodd;clip-rule:evenodd;fill:#BD8B17;}
	.st24{fill-rule:evenodd;clip-rule:evenodd;fill:#251205;}
	.st25{fill-rule:evenodd;clip-rule:evenodd;fill:#68320F;}
	.st26{fill-rule:evenodd;clip-rule:evenodd;fill:#43200A;}
	.st27{fill-rule:evenodd;clip-rule:evenodd;fill:#F7C8C4;}
	.st28{fill-rule:evenodd;clip-rule:evenodd;fill:#773911;}
	.st29{fill-rule:evenodd;clip-rule:evenodd;fill:#5F858E;}
	.st30{fill-rule:evenodd;clip-rule:evenodd;fill:#96D3BF;}
	.st31{fill-rule:evenodd;clip-rule:evenodd;fill:#94B8BF;}
	.st32{fill-rule:evenodd;clip-rule:evenodd;fill:#395257;}
	.st33{fill-rule:evenodd;clip-rule:evenodd;fill:#DF5920;}
	.st34{fill-rule:evenodd;clip-rule:evenodd;fill:#E99138;}
	.st35{fill-rule:evenodd;clip-rule:evenodd;fill:url(#SVGID_1_);}
	.st36{fill-rule:evenodd;clip-rule:evenodd;fill:#FFCC00;}
	.st37{fill-rule:evenodd;clip-rule:evenodd;fill:#467175;}
	.st38{fill-rule:evenodd;clip-rule:evenodd;fill:#94B1B8;}
	.st39{fill:#737373;}
</style>
<path class="st0" d="M184.22,122.44c-3.5,0.9-5.65,1.89-6.46,2.98c-1.89,2.37-5.3,5.16-10.22,8.37c-4.07,3.31-6.1,7.47-6.1,12.48
	c0,6.15,1.96,11.56,5.89,16.24c3.12,3.69,5.32,7.45,6.6,11.28c-0.24,0.8-0.59,1.77-1.06,2.91c-0.9,2.32-1.35,4.16-1.35,5.53
	c0,5.58,3.29,11.04,9.86,16.39c6.43,5.25,12.86,7.87,19.29,7.87c2.13,0,4.02-0.71,5.67-2.13c1.42-1.28,2.41-2.91,2.98-4.9
	c0.8-3.36,1.56-5.77,2.27-7.24c1.47-3.22,3.38-5.18,5.75-5.89c4.87-1.56,10.1-5.3,15.68-11.21c6.57-6.9,9.86-13.67,9.86-20.29
	c0-9.36-4.66-17.43-13.97-24.19c-9.03-6.57-19.58-9.86-31.64-9.86C192.5,120.81,188.15,121.36,184.22,122.44z"/>
<polygon class="st1" points="103.47,385.9 35.51,421.57 107.18,459.14 175.06,423.47 "/>
<polygon class="st1" points="318.64,382.18 133.44,479.36 393.08,615.44 577.99,518.29 "/>
<polygon class="st2" points="288.82,508.8 356.74,544.45 390.72,526.61 390.72,445.64 322.8,409.99 288.82,427.83 "/>
<g>
	<path class="st3" d="M372.34,595.7v-80.97l-67.92-35.65v80.97L372.34,595.7z M351.77,552.88v10.99L321.59,548v-39.54l9.8,5.14
		l20.38,10.71V552.88z"/>
	<polygon class="st4" points="331.39,542.14 351.77,552.88 351.77,524.3 331.39,513.6 	"/>
	<polygon class="st5" points="321.59,548 351.77,563.87 351.77,552.88 331.39,542.14 	"/>
	<polygon class="st6" points="321.59,548 331.39,542.14 331.39,513.6 321.59,508.46 	"/>
	<polygon class="st7" points="304.42,479.08 372.34,514.72 372.34,595.7 406.32,577.86 406.32,496.89 338.4,461.24 	"/>
</g>
<g>
	<g>
		<polygon class="st8" points="230.04,333.24 211.79,342.75 211.79,363.72 230.04,354.21 		"/>
		<polygon class="st9" points="211.79,342.75 142.96,310.08 142.96,331.05 211.79,363.72 		"/>
		<polygon class="st10" points="211.79,342.75 230.04,333.24 161.22,300.57 142.96,310.08 		"/>
	</g>
	<g>
		<path class="st11" d="M60.51,389.38v-2.27l13.34,2.98l0.14-10.29v-7.09l35.33,18.3v7.09v19.93l-36.46-8.23l-12.34-2.84V389.38z
			 M137.69,403.29l-0.07-26.96l15.54,8.02l32.77,35.82l-2.77,25.54l-30.01-34.48L137.69,403.29z"/>
		<path class="st12" d="M185.93,420.17l-32.77-35.82l-15.54-8.02l28.38-14.75l15.54,8.02l21.92,30.22L185.93,420.17z M109.31,391.01
			l28.3-14.68l0.07,26.96l-28.37,14.75v-19.93V391.01z"/>
		<polygon class="st8" points="137.62,376.33 109.31,391.01 120.66,346.11 147.55,332.21 152.59,337.1 155.14,328.23 177.34,316.67 
			165.99,361.57 		"/>
		<polygon class="st9" points="147.55,332.21 120.66,346.11 109.31,391.01 73.99,372.71 73.99,366.75 85.34,327.81 85.41,327.81 
			142.09,298.23 177.34,316.67 155.14,328.23 		"/>
		<polygon class="st13" points="147.55,332.21 155.14,328.23 152.59,337.1 		"/>
		<polygon class="st14" points="73.99,379.81 73.85,390.09 60.51,387.11 72.07,380.8 		"/>
		<polygon class="st15" points="60.51,389.38 47.88,386.12 62,378.46 72.07,380.8 60.51,387.11 		"/>
		<polygon class="st16" points="60.51,424.64 60.51,406.97 72.85,409.81 72.85,418.18 		"/>
		<polygon class="st17" points="60.51,406.97 60.51,424.64 47.88,418.11 47.88,386.12 60.51,389.38 		"/>
	</g>
	<g>
		<polygon class="st8" points="163.79,362.96 145.53,372.47 145.53,393.44 163.79,383.93 		"/>
		<polygon class="st9" points="145.53,372.47 76.71,339.8 76.71,360.77 145.53,393.44 		"/>
		<polygon class="st10" points="145.53,372.47 163.79,362.96 94.96,330.29 76.71,339.8 		"/>
	</g>
	<g>
		<polygon class="st18" points="123.29,253.12 123.29,273.91 123.29,346.12 189.31,311.72 189.31,239.5 189.31,218.72 		"/>
		<polygon class="st19" points="123.29,253.12 66.88,223.78 66.88,244.56 66.88,295.43 66.88,316.78 123.29,346.12 123.29,273.91 		
			"/>
		<polygon class="st20" points="66.88,223.78 123.29,253.12 189.31,218.72 132.99,189.29 		"/>
	</g>
	<polygon class="st21" points="177.63,241.76 174.51,234.88 171.31,244.46 171.31,251.48 173.23,252.9 175.78,251.76 177.63,248.78 
			"/>
	<polygon class="st0" points="163.74,273.17 163.85,286.61 174.35,281.13 174.24,267.73 	"/>
	<polygon class="st22" points="163.67,273.48 163.67,278.88 168.21,276.5 168.21,271.14 	"/>
	<polygon class="st0" points="141.04,285.3 141.15,298.74 151.65,293.26 151.54,279.86 	"/>
	<polygon class="st23" points="110.16,263.18 103.92,276.95 103.92,290.99 107.61,297.02 112.72,299.22 121.37,293.33 
		121.37,279.29 115.06,260.13 	"/>
	<g>
		<path class="st24" d="M192.88,216.44l-70.79,36.89v10.57l7.94-0.35c0.57,0.38,1.09,0.8,1.56,1.28c1.32,1.37,5.49,3.12,12.49,5.25
			l0.92-15.82l6.6,27.17l15.18-31.85l26.1-16.67V216.44z"/>
		<polygon class="st25" points="122.08,253.32 61.64,221.83 61.64,244.17 61.64,298.79 61.64,306.17 91.51,281.2 100.38,296.52 
			122.08,263.89 		"/>
		<polygon class="st26" points="192.88,216.44 132.51,184.87 61.64,221.83 122.08,253.32 		"/>
	</g>
	<polygon class="st21" points="175.85,261.94 175.85,254.64 154.93,273.04 132.44,273.68 132.44,280.85 155.42,280 	"/>
	<polygon class="st24" points="178.05,262.72 178.05,255.42 157.12,273.82 134.64,274.46 134.64,281.63 157.62,280.78 	"/>
	<g>
		<polygon class="st0" points="160.69,346.01 160.69,344.26 160.69,335.59 157.77,334.07 160.69,332.54 163.62,334.07 
			163.62,342.73 163.62,344.48 		"/>
		<polygon class="st27" points="157.77,334.07 160.69,335.59 160.69,344.26 160.69,346.01 157.77,344.48 157.77,342.73 		"/>
	</g>
	<g>
		<polygon class="st18" points="154.6,394.38 154.6,394.41 154.63,394.38 172.86,384.9 172.86,371.43 172.86,353.29 164.59,349.33 
			146.33,358.84 154.63,362.77 154.6,362.8 		"/>
		<polygon class="st19" points="146.33,358.84 146.33,390.45 154.6,394.38 154.6,362.8 154.63,362.77 		"/>
	</g>
	<g>
		<polygon class="st0" points="145.44,352.04 145.44,350.29 145.44,341.62 142.52,340.1 145.44,338.57 148.37,340.1 148.37,348.76 
			148.37,350.51 		"/>
		<polygon class="st27" points="142.52,340.1 145.44,341.62 145.44,350.29 145.44,352.04 142.52,350.51 142.52,348.76 		"/>
	</g>
	<g>
		<polygon class="st18" points="161.13,303.25 165.03,301.22 165.03,296.96 165.03,295.73 161.13,297.76 161.13,298.99 		"/>
		<polygon class="st19" points="161.13,297.76 157.8,296.03 157.8,297.26 157.8,300.26 157.8,301.52 161.13,303.25 161.13,298.99 		
			"/>
		<polygon class="st20" points="157.8,296.03 161.13,297.76 165.03,295.73 161.7,293.99 		"/>
	</g>
	<path class="st28" d="M166.56,311.92l0.59-3.22c-4.43,0.1-9.22,2.55-14.36,7.33l0.71,3.16
		C158.98,314.02,163.33,311.6,166.56,311.92z"/>
	<polygon class="st22" points="140.97,285.61 140.97,291.01 145.51,288.63 145.51,283.27 	"/>
</g>
<polygon class="st2" points="161.13,442.55 229.05,478.2 263.03,460.36 263.03,379.38 195.11,343.73 161.13,361.58 "/>
<g>
	<path class="st3" d="M218.63,483.54v10.99l-30.18-15.88v-39.54l9.81,5.14l20.38,10.71V483.54z M239.2,526.36v-80.97l-67.92-35.65
		v80.97L239.2,526.36z"/>
	<polygon class="st4" points="198.25,472.81 218.63,483.54 218.63,454.97 198.25,444.26 	"/>
	<polygon class="st5" points="188.44,478.66 218.63,494.54 218.63,483.54 198.25,472.81 	"/>
	<polygon class="st6" points="188.44,478.66 198.25,472.81 198.25,444.26 188.44,439.12 	"/>
	<polygon class="st7" points="171.28,409.74 239.2,445.39 239.2,526.36 273.17,508.52 273.17,427.55 205.25,391.9 	"/>
</g>
<g>
	<path class="st5" d="M463.84,297.22l13.37,7.01l30.15-15.85l-13.4-7.01L463.84,297.22z M457.03,323.61l13.4,7.01l6.78-3.57
		l-13.37-6.99v0.02L457.03,323.61z"/>
	<polygon class="st6" points="470.43,344.86 507.38,325.51 507.37,288.38 477.21,304.23 477.21,327.05 470.43,330.62 	"/>
	<path class="st4" d="M463.84,297.22v22.84l13.37,6.99v-22.82L463.84,297.22z M470.43,344.86v-14.24l-13.4-7.01v14.24L470.43,344.86
		z"/>
</g>
<g>
	<polygon class="st4" points="397.89,534.59 397.89,467.27 159.25,342 159.25,446.56 168.05,451.17 168.05,403.92 244.31,443.93 
		244.31,491.18 300.14,520.47 300.14,473.23 373.84,511.89 373.84,559.21 407.89,577.08 407.89,566.51 407.89,539.84 	"/>
	<path class="st5" d="M350.86,428.47l-178.2-93.5L159.25,342l238.63,125.28l13.41-7.02L350.86,428.47z M557.78,450.67l-159.89,83.92
		l10,5.25l159.96-83.85L557.78,450.67z M483.87,358.67l60.51,31.71l13.41-7.09l-76.68-40.22L483.87,358.67z"/>
	<path class="st6" d="M567.85,455.99l-159.96,83.85v26.67v10.57l159.96-83.99V455.99z M397.89,534.59l159.89-83.92V397.4v-14.12
		l-13.41,7.09l-66.47,25.96l-66.61,43.91l-13.41,7.02V534.59z"/>
	<path class="st29" d="M172.66,334.97l178.2,93.5l-21.99-121.94l-134.21-70.37L172.66,334.97z M195.29,327.95l15.75-70.51
		l104.92,55.12l15.68,86.9L195.29,327.95z"/>
	<path class="st30" d="M461.95,236.72l-133.08,69.8l21.99,121.94l66.54-52.92l66.47-16.88l-2.77-15.61L461.95,236.72z
		 M341.78,315.11l115.63-60.65l15.75,86.97l-115.7,60.65L341.78,315.11z"/>
	<polygon class="st31" points="328.87,306.53 461.95,236.72 327.73,166.28 194.65,236.16 	"/>
	<polygon class="st32" points="195.29,327.95 331.63,399.46 315.96,312.56 211.04,257.44 	"/>
	<polygon class="st33" points="350.86,428.47 411.3,460.25 477.91,416.34 417.4,375.55 	"/>
	<polygon class="st34" points="483.87,358.67 417.4,375.55 477.91,416.34 544.38,390.37 	"/>
	
		<radialGradient id="SVGID_1_" cx="3115.3853" cy="328.2686" r="89.1928" gradientTransform="matrix(-1 0 0 1 3522.8496 0)" gradientUnits="userSpaceOnUse">
		<stop  offset="0" style="stop-color:#FFFFFF"/>
		<stop  offset="1" style="stop-color:#F0D7D7"/>
	</radialGradient>
	<polygon class="st35" points="341.78,315.11 357.45,402.08 473.15,341.43 457.41,254.46 	"/>
</g>
<polygon class="st3" points="433.17,502.27 509.5,462.2 509.5,444.45 433.17,484.52 433.17,497.24 "/>
<polygon class="st36" points="447.17,463.84 419.11,478.6 419.11,509.55 447.17,494.83 "/>
<polygon class="st36" points="537.58,447.47 537.58,416.51 509.52,431.25 509.52,462.21 "/>
<g>
	<path class="st5" d="M330.51,379.78l-13.35-6.97l-30.13,15.83l13.35,6.97L330.51,379.78z M330.51,395.55v7.15l6.85-3.6
		L330.51,395.55z"/>
	<polygon class="st6" points="337.36,399.09 330.51,402.7 330.51,395.55 330.51,379.78 300.38,395.61 300.38,432.71 337.36,413.33 	
		"/>
	<polygon class="st4" points="300.38,395.61 287.03,388.64 287.03,425.74 300.38,432.71 	"/>
</g>
<polygon class="st2" points="269.94,432.75 269.94,419.01 244.72,405.85 244.72,419.56 "/>
<path class="st16" d="M446.18,314.07c-2.64,0.74-4.77,2.54-6.39,5.39c-1.62,2.88-2.25,5.98-1.91,9.31c0.34,3.32,1.56,5.89,3.66,7.71
	c2.1,1.84,4.47,2.39,7.11,1.65c2.64-0.74,4.77-2.55,6.39-5.43c1.62-2.86,2.26-5.95,1.92-9.27c-0.34-3.32-1.56-5.91-3.66-7.75
	C451.19,313.87,448.82,313.33,446.18,314.07z"/>
<path class="st16" d="M386.66,313.86c-2.64,0.74-4.77,2.54-6.39,5.39c-1.62,2.88-2.25,5.98-1.91,9.31c0.34,3.32,1.56,5.89,3.66,7.71
	c2.1,1.84,4.47,2.39,7.11,1.65c2.64-0.74,4.77-2.55,6.39-5.43c1.62-2.86,2.26-5.95,1.92-9.27c-0.34-3.32-1.56-5.91-3.66-7.75
	C391.67,313.65,389.3,313.12,386.66,313.86z"/>
<g>
	<polygon class="st31" points="409.1,324.62 469.61,322.13 457.41,254.46 341.78,315.11 350.29,362.92 403.46,309.12 404.27,308.3 	
		"/>
	<polygon class="st37" points="409.1,324.62 404.27,308.3 403.46,309.12 408.03,324.19 	"/>
</g>
<g>
	<polygon class="st29" points="118.89,280.78 114,283.83 114,297.87 118.89,294.82 	"/>
	<polygon class="st38" points="114,283.83 107.68,264.67 101.44,278.44 101.44,292.48 105.13,298.51 110.24,300.71 114,297.87 	"/>
	<polygon class="st0" points="107.68,264.67 114,283.83 118.89,280.78 112.58,261.62 	"/>
</g>
<path class="st3" d="M473.36,524.54v7.38c15.61-15.93,30.5-23.74,44.66-23.45v-7.36C502.77,499.5,487.88,507.3,473.36,524.54z"/>
<g>
	<polygon class="st29" points="92.25,260.38 92.25,267.4 94.7,265.88 94.7,258.86 	"/>
	<polygon class="st38" points="92.25,260.38 89.1,250.81 85.98,257.69 85.98,264.71 87.82,267.72 90.37,268.82 92.25,267.4 	"/>
	<polygon class="st0" points="89.1,250.81 92.25,260.38 94.7,258.86 91.54,249.28 	"/>
</g>
<g>
	<polygon class="st29" points="175.14,250.06 175.14,243.04 172.73,241.48 172.73,248.5 	"/>
	<polygon class="st38" points="175.14,250.06 177.06,251.48 179.61,250.34 181.46,247.36 181.46,240.34 178.34,233.46 
		175.14,243.04 	"/>
	<polygon class="st0" points="172.73,241.48 175.14,243.04 178.34,233.46 175.85,231.9 	"/>
</g>
<g>
	<path class="st39" d="M180.84,186.86c-0.53-1.18-0.75-2.51-0.75-3.91l0,0c0.05-4.29,2.04-9.41,4.78-13.41l0,0
		c-1.52-1.25-2.92-2.72-4.16-4.41l0,0c-0.12-0.06-0.24-0.13-0.35-0.19l0,0c-4.94-2.73-9.31-6.52-9.35-11.44l0,0
		c0-1.59,0.48-3.25,1.52-4.93l0,0c1.75-2.88,3.74-4.18,5.79-4.18l0,0c2.65,0.08,5.02,2.04,7.1,4.34l0,0c0.21-0.8,0.58-1.64,1.1-2.53
		l0,0c2.06-3.55,4.62-5.21,7.29-5.2l0,0c2.57,0.03,5.05,1.45,7.29,3.68l0,0c0.95,0.05,1.84,0.15,2.68,0.29l0,0
		c-5.1-4.43-11.86-7.65-18.7-7.65l0,0c-0.11,0-0.23,0-0.33,0.01l0,0l-0.22-1.39c4.93-1.45,12.95-2.86,20.92-2.86l0,0
		c6.14,0,12.25,0.83,16.92,3.21l0,0c4.68,2.35,7.9,6.43,7.88,12.53l0,0c0,1.35-0.15,2.8-0.47,4.35l0,0
		c-2.23,10.87-10.56,18.16-20.05,20.86l0,0c-0.49,0.92-1.13,1.71-1.96,2.33l0,0c-0.49,0.37-1,0.68-1.52,0.93l0,0
		c-0.15,0.31-0.32,0.63-0.5,0.95l0,0c-1.82,3.32-5.27,6.11-9.01,7.32l0,0c-2.6,3.58-6.05,6.43-9.52,6.52l0,0c-0.01,0-0.02,0-0.03,0
		l0,0C184.7,192.09,182.4,190.43,180.84,186.86L180.84,186.86z M181.5,182.95c0,1.26,0.2,2.39,0.63,3.34l0,0
		c1.5,3.3,3.26,4.37,5.09,4.39l0,0c2.3,0.07,4.99-1.88,7.28-4.57l0,0c-0.55,0.08-1.1,0.12-1.64,0.12l0,0c-0.09,0-0.18,0-0.28,0l0,0
		c-7.2-0.12-10.4-2.8-10.39-6.39l0,0c0.03-2.98,2.05-6.17,4.7-8.8l0,0c-0.3-0.19-0.59-0.4-0.88-0.61l0,0
		C183.43,174.22,181.45,179.1,181.5,182.95L181.5,182.95z M183.61,179.83c0.01,2.54,1.97,4.72,9.01,4.97l0,0c0.08,0,0.16,0,0.24,0
		l0,0c0.98,0.01,1.99-0.15,2.99-0.44l0,0c1.57-2.21,2.81-4.68,3.38-6.87l0,0c-1.88-0.66-3.7-1.82-5.38-3.31l0,0
		c-1.99-0.56-3.91-1.35-5.72-2.39l0,0C185.5,174.31,183.58,177.46,183.61,179.83L183.61,179.83z M198.11,183.48
		c2.54-1.25,4.83-3.26,6.18-5.53l0,0c-0.56,0.11-1.13,0.17-1.7,0.17l0,0c-0.67-0.01-1.34-0.09-2.01-0.24l0,0
		C200.07,179.68,199.22,181.62,198.11,183.48L198.11,183.48z M202.59,176.71c0.89,0,1.76-0.16,2.61-0.5l0,0
		c0.22-0.46,0.41-0.91,0.57-1.32l0,0c-1.45,0.21-2.92,0.32-4.38,0.32l0,0c-0.07,0-0.13,0-0.2,0l0,0c-0.08,0.43-0.16,0.87-0.27,1.33
		l0,0C201.48,176.65,202.04,176.71,202.59,176.71L202.59,176.71z M199.55,176.13c0.07-0.33,0.14-0.66,0.2-0.97l0,0
		c-0.89-0.05-1.77-0.14-2.65-0.27l0,0C197.92,175.4,198.74,175.82,199.55,176.13L199.55,176.13z M207.25,174.96
		c0.15-0.13,0.29-0.27,0.42-0.42l0,0c-0.1,0.02-0.2,0.04-0.3,0.06l0,0C207.33,174.72,207.29,174.84,207.25,174.96L207.25,174.96z
		 M201.53,171.77c0,0.62-0.04,1.29-0.13,2.02l0,0c1.62,0,3.24-0.14,4.84-0.42l0,0c0.16-0.66,0.23-1.25,0.23-1.79l0,0
		c0.02-0.8-0.14-1.52-0.46-2.2l0,0c-1.36,0.34-2.89,0.56-4.61,0.65l0,0C201.48,170.56,201.53,171.14,201.53,171.77L201.53,171.77z
		 M199.97,173.75c0.09-0.73,0.13-1.39,0.13-1.98l0,0c-0.02-0.65-0.07-1.21-0.16-1.7l0,0c-0.08,0-0.16,0-0.25,0l0,0
		c-1.64,0-3.44-0.11-5.4-0.34l0,0c-0.83-0.1-1.81-0.28-2.9-0.54l0,0c-0.02,0.01-0.04,0.03-0.07,0.04l0,0
		c0.16,0.22,0.32,0.44,0.49,0.66l0,0c0.85,1.11,1.77,2.13,2.74,3.02l0,0C196.32,173.38,198.14,173.65,199.97,173.75L199.97,173.75z
		 M207.89,171.57c0,0.48-0.05,0.98-0.14,1.49l0,0c0.33-0.07,0.65-0.15,0.98-0.24l0,0c0.55-1.29,0.82-2.89,0.82-4.71l0,0
		c0-0.04,0-0.08,0-0.12l0,0c-0.66,0.37-1.38,0.7-2.18,0.97l0,0C207.69,169.76,207.88,170.61,207.89,171.57L207.89,171.57z
		 M210.97,168.12c0,1.51-0.17,2.94-0.55,4.22l0,0c8.59-2.81,15.96-9.59,17.97-19.45l0,0c0.3-1.47,0.44-2.82,0.44-4.06l0,0
		c-0.02-5.59-2.77-9.03-7.1-11.27l0,0c-4.33-2.21-10.27-3.06-16.27-3.05l0,0c-5.83,0-11.73,0.78-16.34,1.76l0,0
		c6.72,1.12,12.98,4.83,17.55,9.42l0,0c5.1,1.73,7.46,5.36,7.44,9l0,0c0,0.88-0.14,1.76-0.4,2.6l0,0c0.24,1.01,0.37,2.01,0.38,2.97
		l0,0c0.01,2.62-0.98,5.07-3.14,6.81l0,0C210.96,167.42,210.97,167.77,210.97,168.12L210.97,168.12z M191.64,171.93
		c-0.51-0.6-1.01-1.22-1.47-1.88l0,0c-0.31,0.23-0.62,0.48-0.92,0.74l0,0C190.02,171.22,190.82,171.6,191.64,171.93L191.64,171.93z
		 M187.96,170.03c0.46-0.4,0.93-0.79,1.41-1.15l0,0c-0.06-0.1-0.12-0.19-0.19-0.29l0,0c-0.47-0.14-0.95-0.29-1.44-0.46l0,0
		c-0.31,0.36-0.61,0.74-0.91,1.13l0,0C187.2,169.54,187.57,169.79,187.96,170.03L187.96,170.03z M194.47,168.32
		c1.83,0.22,3.51,0.32,5.03,0.33l0,0c-0.56-1.08-1.48-1.43-2.66-1.47l0,0c-1.02-0.01-2.26,0.34-3.56,0.96l0,0
		C193.71,168.22,194.11,168.28,194.47,168.32L194.47,168.32z M200.24,167.24c0.32,0.39,0.59,0.85,0.79,1.38l0,0
		c1.58-0.07,2.97-0.25,4.19-0.52l0,0c-1.31-1.68-3.57-3.26-6.44-5.39l0,0c-2.06-0.86-4.24-2.22-6.5-4.18l0,0
		c-2.14-1.24-4.17-2.5-5.5-4.1l0,0c-0.09,0.59-0.13,1.2-0.14,1.83l0,0c-0.01,2.79,0.83,5.88,2.22,8.8l0,0
		c1.09-0.9,2.2-1.57,3.3-1.93l0,0l0.41,1.36c-0.97,0.27-2.01,0.92-3.06,1.85l0,0c0.2,0.36,0.4,0.71,0.61,1.06l0,0
		c0.36,0.1,0.71,0.2,1.04,0.28l0,0c1.93-1.16,3.9-1.9,5.68-1.91l0,0c0.01,0,0.02,0,0.03,0l0,0
		C198.16,165.76,199.39,166.21,200.24,167.24L200.24,167.24z M185.7,168.39c0.2-0.26,0.4-0.51,0.61-0.76l0,0
		c-0.83-0.31-1.66-0.64-2.5-1.01l0,0C184.41,167.25,185.04,167.84,185.7,168.39L185.7,168.39z M206.68,167.71
		c1.1-0.35,2.02-0.79,2.79-1.31l0,0c-0.1-1.14-0.28-2.34-0.55-3.56l0,0c-1.34,0.67-2.91,1.06-4.65,1.06l0,0
		c-0.55,0-1.12-0.04-1.7-0.12l0,0C204.3,165.08,205.74,166.29,206.68,167.71L206.68,167.71z M187.32,166.49
		c0.15-0.15,0.29-0.3,0.44-0.45l0,0c-1.57-3.18-2.52-6.61-2.54-9.79l0,0c0-1.23,0.15-2.44,0.46-3.57l0,0
		c-0.27-0.62-0.43-1.29-0.48-2.02l0,0c-2.25-2.61-4.69-4.94-6.88-4.85l0,0c-1.4,0-2.92,0.83-4.58,3.5l0,0
		c-0.93,1.5-1.31,2.89-1.31,4.19l0,0c-0.04,3.39,2.77,6.52,6.61,9l0,0c-0.48-0.87-0.93-1.78-1.33-2.74l0,0l1.31-0.55
		c0.75,1.78,1.65,3.38,2.66,4.82l0,0C183.51,165,185.46,165.83,187.32,166.49L187.32,166.49z M210.79,165.29
		c1.3-1.39,1.85-3.12,1.87-5.04l0,0c0-0.24-0.01-0.48-0.02-0.72l0,0c-0.63,0.97-1.44,1.83-2.42,2.53l0,0
		C210.46,163.15,210.66,164.23,210.79,165.29L210.79,165.29z M204.28,162.47c1.65,0,3.1-0.4,4.31-1.06l0,0
		c-0.9-3.44-2.38-6.99-4.2-10.07l0,0c-1.18-2.02-2.52-3.83-3.91-5.28l0,0c-0.42-0.02-0.83-0.03-1.24-0.03l0,0
		c-6.54,0.06-10.02,2.2-11.58,5.38l0,0c1.09,1.38,2.08,2.67,2.97,3.56l0,0c0.83,0.87,1.64,1.66,2.45,2.36l0,0
		c1.89,1.13,3.93,2.3,5.78,3.66l0,0c0.2,0.15,0.4,0.3,0.59,0.45l0,0C201.21,162.17,202.83,162.48,204.28,162.47L204.28,162.47z
		 M205.61,150.63c1.8,3.06,3.28,6.53,4.22,9.95l0,0c1.11-0.91,1.93-2.09,2.39-3.37l0,0c-0.9-3.33-3.17-7.01-6.34-10.26l0,0
		c-0.99-0.31-2.1-0.55-3.34-0.7l0,0C203.64,147.55,204.67,149.04,205.61,150.63L205.61,150.63z M212.66,154.24
		c-0.14-2.11-1.21-4.25-3.57-5.82l0,0C210.6,150.31,211.81,152.28,212.66,154.24L212.66,154.24z M186.7,150.23
		c0.46-0.8,1.04-1.54,1.75-2.2l0,0c2.23-2.09,5.67-3.35,10.47-3.4l0,0c-1.73-1.41-3.48-2.23-5.11-2.2l0,0
		c-2.05,0.01-4.12,1.2-6.07,4.5l0,0c-0.73,1.24-1.07,2.29-1.13,3.19l0,0C186.64,150.15,186.67,150.19,186.7,150.23L186.7,150.23z"/>
</g>
<g>
	<path class="st39" d="M539.9,343.53c0.08-6.62,7-12.79,9.31-18.47l0,0c1.34-3.19,1.85-5.51,1.85-7.31l0,0
		c-0.01-2.88-1.27-4.53-3-6.66l0,0c-1.72-2.1-3.86-4.59-5.11-8.81l0,0c-0.25-0.82-0.36-1.63-0.36-2.43l0,0
		c0.05-5.32,4.82-9.9,10.1-14.43l0,0c4.14-3.51,8.67-6.99,11.77-10.44l0,0c-2,1.01-4.17,1.85-6.46,2.5l0,0
		c-4.21,5.37-10.02,9.08-17.07,9.12l0,0c-0.51,0-1.02-0.02-1.54-0.06l0,0c-9.63-0.72-14.94-6.52-16.92-14.32l0,0
		c-5.63-3.9-9.42-9.51-9.46-16.9l0,0c0-2.99,0.63-6.25,2.01-9.76l0,0c2.85-7.26,8.39-13.01,15.07-16.66l0,0
		c-3.82,0.02-7.72,0.16-11.56,0.16l0,0c-1.65,0-3.28-0.02-4.9-0.1l0,0l-1.98-0.09l1.59-1.18c4.56-3.39,9.83-4.75,15.29-4.75l0,0
		c3.17,0,6.42,0.46,9.66,1.23l0,0c4.73-4.64,10.15-7.58,15.81-7.64l0,0c5.72-0.01,11.55,3.08,16.88,10.24l0,0
		c4.21,5.63,5.93,11.99,5.93,18.41l0,0c0,0.53-0.01,1.07-0.04,1.6l0,0c1.52,2.66,2.24,5.44,2.24,8.22l0,0
		c-0.02,6.9-4.35,13.56-11.3,18.09l0,0c-3.06,4.67-8.96,9-14.1,13.39l0,0c-5.29,4.46-9.66,8.99-9.6,13.35l0,0
		c0,0.67,0.09,1.33,0.3,2.02l0,0c1.18,3.94,3.11,6.18,4.85,8.31l0,0c1.73,2.11,3.32,4.2,3.32,7.56l0,0c0,2.07-0.59,4.56-1.96,7.86
		l0,0c-2.61,6.07-9.28,12.3-9.2,17.92l0,0c0,1.04,0.21,2.06,0.71,3.1l0,0l-1.28,0.61C540.16,346.01,539.9,344.76,539.9,343.53
		L539.9,343.53z M539.51,285.14c0.48,0.04,0.96,0.05,1.43,0.05l0,0c5.86,0,10.86-2.81,14.73-7.12l0,0c-2.9,0.62-6,0.92-9.17,0.92
		l0,0c-7.71-0.01-15.87-1.85-22.2-5.59l0,0C526.4,279.95,531.15,284.46,539.51,285.14L539.51,285.14z M524.63,271.95
		c6.09,3.73,14.17,5.62,21.87,5.62l0,0c3.74,0,7.38-0.45,10.67-1.32l0,0c0.23-0.31,0.46-0.62,0.68-0.93l0,0
		c4.08-5.82,6.38-13.38,6.38-20.13l0,0c0-2.55-0.32-4.99-1-7.16l0,0c-4.73-15.21-15.23-18.41-27.46-18.99l0,0
		c-1.13,1.42-2.21,2.95-3.23,4.55l0,0c-5.8,9.12-9.56,20.77-9.55,30.66l0,0c0.01,2.53,0.26,4.93,0.76,7.15l0,0
		C524.05,271.58,524.34,271.77,524.63,271.95L524.63,271.95z M564.59,247.6c0.72,2.33,1.06,4.91,1.06,7.58l0,0
		c-0.01,6.82-2.23,14.39-6.25,20.39l0,0c2.67-0.9,5.11-2.09,7.29-3.48l0,0c0.01-0.01,0.01-0.02,0.02-0.04l0,0
		c4.61-7.4,8.17-16.23,8.64-24.9l0,0c-1.56-2.58-3.97-5.05-7.39-7.29l0,0c-7.08-4.63-16.88-10.38-26.8-13.41l0,0
		c-1.38,0.26-2.75,0.6-4.1,1.03l0,0c-0.05,0.06-0.09,0.11-0.14,0.16l0,0C548.93,228.38,559.86,232.16,564.59,247.6L564.59,247.6z
		 M516.36,246.09c-1.32,3.37-1.91,6.45-1.91,9.24l0,0c0.01,6.27,2.96,11.18,7.6,14.82l0,0c-0.33-1.89-0.48-3.87-0.47-5.91l0,0
		c0.05-11.66,4.98-25.51,12.44-35.28l0,0c-0.26-0.01-0.51-0.01-0.77-0.02l0,0C525.73,232.32,519.38,238.33,516.36,246.09
		L516.36,246.09z M569.58,269.99c5.05-4.17,8.04-9.58,8.02-14.97l0,0c0-1.81-0.33-3.63-1.04-5.42l0,0
		C575.75,256.71,573.07,263.76,569.58,269.99L569.58,269.99z M568.74,238.68c2.83,1.84,5.03,3.88,6.66,6.03l0,0
		c-0.09-6-1.74-11.84-5.64-17.07l0,0c-5.18-6.92-10.56-9.67-15.74-9.67l0,0c-4.91-0.02-9.79,2.51-14.18,6.63l0,0
		c0.47,0.13,0.94,0.26,1.41,0.4l0,0c1.97-0.35,3.97-0.53,5.96-0.53l0,0c2.83,0,5.64,0.36,8.38,1.12l0,0l-0.38,1.37
		c-2.6-0.72-5.29-1.07-7.99-1.07l0,0c-0.95,0-1.89,0.04-2.84,0.13l0,0C553.52,229.25,562.25,234.45,568.74,238.68L568.74,238.68z
		 M518.55,227.66c4.02,0,8.14-0.15,12.21-0.15l0,0c0.74,0,1.48,0,2.22,0.01l0,0c1.07-0.47,2.16-0.88,3.26-1.25l0,0
		c0.27-0.3,0.54-0.6,0.81-0.89l0,0c-2.87-0.64-5.73-1-8.5-1l0,0c-4.52,0-8.8,0.95-12.64,3.26l0,0
		C516.78,227.65,517.66,227.66,518.55,227.66L518.55,227.66z"/>
</g>
<g>
	<path class="st39" d="M581.62,238.04c0.13-1.02,0.2-2.02,0.2-3.01l0,0c-0.01-6.16-2.54-11.73-7.48-15.74l0,0h0l0.89-1.1
		c5.27,4.26,8.01,10.29,8.01,16.84l0,0c0,1.05-0.07,2.12-0.21,3.19l0,0L581.62,238.04L581.62,238.04z"/>
</g>
<g>
	<path class="st39" d="M530.12,256.34c0-1.39,0.29-2.88,0.92-4.47l0,0l0,0l1.32,0.52c-0.57,1.44-0.82,2.76-0.82,3.95l0,0
		c0.01,2.84,1.41,5.02,3.61,6.58l0,0c2.2,1.55,5.22,2.39,8.25,2.39l0,0c1.82,0,3.64-0.3,5.29-0.91l0,0l0.49,1.33
		c-1.83,0.68-3.81,1-5.79,1l0,0C536.87,266.72,530.15,263.1,530.12,256.34L530.12,256.34z"/>
</g>
<g>
	<path class="st39" d="M534.91,269.97l0.77-1.19c3.42,2.21,8.03,3.31,12.29,3.31l0,0c1.04,0,2.05-0.07,3.03-0.19l0,0l0.18,1.41
		c-1.03,0.13-2.11,0.2-3.21,0.2l0,0C543.47,273.5,538.64,272.37,534.91,269.97L534.91,269.97z"/>
</g>
</svg>
